<svg width="179" height="35" viewBox="0 0 179 35" fill="none" xmlns="http://www.w3.org/2000/svg">
<path d="M16.208 26H7.82C7.508 26 7.352 25.844 7.352 25.532V23.768C7.352 23.456 7.508 23.3 7.82 23.3H10.556V2.852H3.752V6.668C3.752 7.004 3.584 7.172 3.248 7.172H1.232C0.896 7.172 0.728 7.004 0.728 6.668V0.619998C0.728 0.307998 0.896 0.151998 1.232 0.151998H22.94C23.276 0.151998 23.444 0.307998 23.444 0.619998V6.668C23.444 7.004 23.276 7.172 22.94 7.172H20.888C20.576 7.172 20.42 7.004 20.42 6.668V2.852H13.688V23.3H16.208C16.544 23.3 16.712 23.456 16.712 23.768V25.532C16.712 25.844 16.544 26 16.208 26ZM32.0753 26H25.1993C24.8873 26 24.7313 25.856 24.7313 25.568V24.02C24.7313 23.732 24.8873 23.588 25.1993 23.588H27.1793V10.7H25.1993C24.8873 10.7 24.7313 10.556 24.7313 10.268V8.72C24.7313 8.432 24.8873 8.288 25.1993 8.288H29.4113C29.7233 8.288 29.8793 8.432 29.8793 8.72V13.22H29.9873C30.0593 12.836 30.3113 12.308 30.7433 11.636C31.1753 10.964 31.6433 10.412 32.1473 9.98C32.6753 9.524 33.4193 9.116 34.3793 8.756C35.3633 8.396 36.4673 8.216 37.6913 8.216C38.0033 8.216 38.1593 8.372 38.1593 8.684V10.592C38.1593 10.904 38.0033 11.06 37.6913 11.06H36.9353C34.8713 11.06 33.2273 11.72 32.0033 13.04C30.7793 14.36 30.1673 15.86 30.1673 17.54V23.588H32.0753C32.3873 23.588 32.5433 23.732 32.5433 24.02V25.568C32.5433 25.856 32.3873 26 32.0753 26ZM57.419 26H54.287C53.255 26 52.739 25.496 52.739 24.488V22.652H52.667C50.915 25.076 48.575 26.288 45.647 26.288C43.919 26.288 42.503 25.844 41.399 24.956C40.295 24.044 39.743 22.82 39.743 21.284C39.743 19.316 40.595 17.876 42.299 16.964C44.027 16.028 46.391 15.56 49.391 15.56H52.415V15.128C52.415 12.128 50.855 10.628 47.735 10.628C46.271 10.628 45.215 10.772 44.567 11.06C43.919 11.324 43.451 11.54 43.163 11.708C42.899 11.876 42.695 12.008 42.551 12.104C42.191 12.392 41.927 12.416 41.759 12.176L40.751 10.916C40.583 10.724 40.607 10.532 40.823 10.34C41.231 9.812 42.071 9.296 43.343 8.792C44.615 8.288 46.115 8.036 47.843 8.036C52.883 8.036 55.403 10.436 55.403 15.236V23.588H57.419C57.707 23.588 57.851 23.732 57.851 24.02V25.568C57.851 25.856 57.707 26 57.419 26ZM52.415 17.72H49.571C48.179 17.72 47.027 17.792 46.115 17.936C45.203 18.08 44.423 18.392 43.775 18.872C43.151 19.352 42.839 20.012 42.839 20.852C42.839 21.692 43.175 22.388 43.847 22.94C44.543 23.468 45.443 23.732 46.547 23.732C48.875 23.732 50.831 22.7 52.415 20.636V17.72ZM78.6812 26H75.5492C74.9972 26 74.5892 25.892 74.3252 25.676C74.0852 25.436 73.9652 25.04 73.9652 24.488V22.472H73.9292C73.5452 23.48 72.8252 24.368 71.7692 25.136C70.7132 25.88 69.4292 26.252 67.9172 26.252C65.5172 26.252 63.5612 25.412 62.0492 23.732C60.5612 22.052 59.8172 19.856 59.8172 17.144C59.8172 14.408 60.5612 12.212 62.0492 10.556C63.5612 8.876 65.5292 8.036 67.9532 8.036C69.4412 8.036 70.6772 8.384 71.6612 9.08C72.6452 9.752 73.3532 10.58 73.7852 11.564H73.8212C73.7972 11.084 73.7852 10.688 73.7852 10.376V2.564H71.7692C71.4572 2.564 71.3012 2.42 71.3012 2.132V0.583999C71.3012 0.295998 71.4572 0.151998 71.7692 0.151998H76.2332C76.5212 0.151998 76.6652 0.295998 76.6652 0.583999V23.588H78.6812C78.9692 23.588 79.1132 23.732 79.1132 24.02V25.568C79.1132 25.856 78.9692 26 78.6812 26ZM62.7692 17.072C62.7692 19.064 63.2852 20.672 64.3172 21.896C65.3732 23.12 66.7052 23.732 68.3132 23.732C69.9212 23.732 71.2412 23.132 72.2732 21.932C73.3052 20.708 73.8212 19.088 73.8212 17.072C73.8212 15.056 73.2932 13.472 72.2372 12.32C71.1812 11.144 69.8732 10.556 68.3132 10.556C66.7532 10.556 65.4332 11.144 64.3532 12.32C63.2972 13.496 62.7692 15.08 62.7692 17.072ZM97.2825 17.504H84.3225C84.4185 19.496 85.0425 21.032 86.1945 22.112C87.3705 23.192 88.6905 23.732 90.1545 23.732C91.6185 23.732 92.8665 23.42 93.8985 22.796C94.9545 22.172 95.6625 21.56 96.0225 20.96C96.2145 20.72 96.4305 20.684 96.6705 20.852L97.6425 21.824C97.7865 21.968 97.8585 22.1 97.8585 22.22C97.8585 22.316 97.7985 22.448 97.6785 22.616C97.5825 22.784 97.3665 23.048 97.0305 23.408C96.6945 23.768 96.2145 24.176 95.5905 24.632C94.9905 25.088 94.1985 25.472 93.2145 25.784C92.2545 26.096 91.2225 26.252 90.1185 26.252C87.5985 26.252 85.4865 25.424 83.7825 23.768C82.1025 22.112 81.2625 19.892 81.2625 17.108C81.2625 14.3 82.1025 12.092 83.7825 10.484C85.4625 8.852 87.5145 8.036 89.9385 8.036C92.3865 8.036 94.3065 8.828 95.6985 10.412C97.0905 11.972 97.7865 14.084 97.7865 16.748C97.7865 16.844 97.7865 16.94 97.7865 17.036C97.7865 17.348 97.6185 17.504 97.2825 17.504ZM94.7985 15.308C94.7265 13.82 94.2585 12.632 93.3945 11.744C92.5305 10.856 91.3785 10.412 89.9385 10.412C88.4985 10.412 87.2625 10.82 86.2305 11.636C85.1985 12.452 84.5865 13.676 84.3945 15.308H94.7985ZM108.626 26.252C107.018 26.252 105.734 25.952 104.774 25.352C103.814 24.752 103.214 24.188 102.974 23.66H102.902C102.95 24.836 102.974 25.46 102.974 25.532C102.974 25.844 102.806 26 102.47 26H101.246C100.934 26 100.778 25.844 100.778 25.532V20.132C100.778 19.82 100.934 19.664 101.246 19.664H102.65C102.986 19.664 103.154 19.82 103.154 20.132V20.852C103.394 21.572 103.898 22.232 104.666 22.832C105.578 23.552 106.718 23.912 108.086 23.912C110.774 23.912 112.118 22.976 112.118 21.104C112.118 20.456 111.746 19.94 111.002 19.556C110.258 19.148 109.346 18.812 108.266 18.548C107.21 18.284 106.154 17.984 105.098 17.648C104.042 17.312 103.142 16.772 102.398 16.028C101.654 15.26 101.282 14.3 101.282 13.148C101.282 11.588 101.846 10.352 102.974 9.44C104.102 8.504 105.542 8.036 107.294 8.036C109.67 8.036 111.374 8.732 112.406 10.124H112.478C112.43 9.26 112.406 8.816 112.406 8.792C112.406 8.48 112.562 8.324 112.874 8.324H114.026C114.338 8.324 114.494 8.48 114.494 8.792V13.796C114.494 14.108 114.338 14.264 114.026 14.264H112.622C112.286 14.264 112.118 14.108 112.118 13.796V13.292C112.118 12.644 111.734 12.008 110.966 11.384C110.222 10.736 109.25 10.412 108.05 10.412C106.85 10.412 105.914 10.664 105.242 11.168C104.57 11.672 104.234 12.332 104.234 13.148C104.234 13.94 104.606 14.564 105.35 15.02C106.118 15.452 107.042 15.8 108.122 16.064C109.202 16.304 110.282 16.58 111.362 16.892C112.442 17.204 113.354 17.72 114.098 18.44C114.866 19.16 115.25 20.156 115.25 21.428C115.25 22.7 114.698 23.828 113.594 24.812C112.514 25.772 110.858 26.252 108.626 26.252ZM136.801 26H133.381C132.349 26 131.833 25.496 131.833 24.488V15.02C131.833 13.628 131.497 12.548 130.825 11.78C130.153 11.012 129.169 10.628 127.873 10.628C126.889 10.628 126.133 10.784 125.605 11.096C125.101 11.384 124.717 11.648 124.453 11.888C124.189 12.104 123.973 12.32 123.805 12.536C123.517 12.92 123.277 13.316 123.085 13.724V23.588H124.993C125.305 23.588 125.461 23.732 125.461 24.02V25.568C125.461 25.856 125.305 26 124.993 26H118.117C117.805 26 117.649 25.856 117.649 25.568V24.02C117.649 23.732 117.805 23.588 118.117 23.588H120.097V2.564H118.117C117.805 2.564 117.649 2.42 117.649 2.132V0.583999C117.649 0.295998 117.805 0.151998 118.117 0.151998H122.653C122.941 0.151998 123.085 0.295998 123.085 0.583999V8.612C123.085 9.404 123.037 10.136 122.941 10.808H123.013C124.189 8.96 126.061 8.036 128.629 8.036C130.549 8.036 132.049 8.6 133.129 9.728C134.209 10.856 134.761 12.38 134.785 14.3V23.588H136.801C137.113 23.588 137.269 23.732 137.269 24.02V25.568C137.269 25.856 137.113 26 136.801 26ZM154.467 23.732C152.787 25.412 150.639 26.252 148.023 26.252C145.407 26.252 143.259 25.424 141.579 23.768C139.899 22.088 139.059 19.868 139.059 17.108C139.059 14.324 139.911 12.116 141.615 10.484C143.319 8.852 145.455 8.036 148.023 8.036C150.615 8.036 152.751 8.864 154.431 10.52C156.135 12.152 156.987 14.348 156.987 17.108C156.987 19.844 156.147 22.052 154.467 23.732ZM142.083 17.108C142.083 19.076 142.659 20.672 143.811 21.896C144.963 23.12 146.367 23.732 148.023 23.732C149.703 23.732 151.119 23.12 152.271 21.896C153.423 20.672 153.999 19.076 153.999 17.108C153.999 15.14 153.411 13.556 152.235 12.356C151.083 11.156 149.691 10.556 148.059 10.556C146.427 10.556 145.023 11.156 143.847 12.356C142.671 13.556 142.083 15.14 142.083 17.108ZM167.119 34.1H159.883C159.571 34.1 159.415 33.956 159.415 33.668V32.12C159.415 31.832 159.571 31.688 159.883 31.688H161.899V10.7H159.955C159.643 10.7 159.487 10.556 159.487 10.268V8.72C159.487 8.432 159.643 8.288 159.955 8.288H164.167C164.479 8.288 164.635 8.432 164.635 8.72L164.599 11.564H164.635C165.091 10.58 165.823 9.752 166.831 9.08C167.863 8.384 169.123 8.036 170.611 8.036C173.035 8.036 174.991 8.864 176.479 10.52C177.967 12.152 178.711 14.336 178.711 17.072C178.711 19.784 177.979 21.992 176.515 23.696C175.051 25.4 173.095 26.252 170.647 26.252C169.159 26.252 167.911 25.916 166.903 25.244C165.919 24.548 165.211 23.708 164.779 22.724H164.671C164.743 23.492 164.779 24.044 164.779 24.38V31.688H167.119C167.431 31.688 167.587 31.832 167.587 32.12V33.668C167.587 33.956 167.431 34.1 167.119 34.1ZM164.707 17.216C164.707 19.304 165.247 20.912 166.327 22.04C167.431 23.168 168.751 23.732 170.287 23.732C171.847 23.732 173.143 23.132 174.175 21.932C175.231 20.708 175.759 19.112 175.759 17.144C175.759 15.152 175.231 13.556 174.175 12.356C173.143 11.156 171.847 10.556 170.287 10.556C168.727 10.556 167.407 11.144 166.327 12.32C165.247 13.496 164.707 15.128 164.707 17.216Z" fill="black"/>
</svg>
